<svg class="svg-icon" style="width: 1em; height: 1em;vertical-align: middle;fill: currentColor;overflow: hidden;" viewBox="0 0 1024 1024" version="1.1" xmlns="http://www.w3.org/2000/svg"><path d="M768 213.333333h42.666667v42.666667a42.666667 42.666667 0 0 0 85.333333 0V213.333333h42.666667a42.666667 42.666667 0 0 0 0-85.333333h-42.666667V85.333333a42.666667 42.666667 0 0 0-85.333333 0v42.666667h-42.666667a42.666667 42.666667 0 0 0 0 85.333333z m-298.666667 170.666667v256a128 128 0 0 0 128 128h42.666667a128 128 0 0 0 128-128V384a128 128 0 0 0-128-128h-42.666667a128 128 0 0 0-128 128z m213.333334 0v256a42.666667 42.666667 0 0 1-42.666667 42.666667h-42.666667a42.666667 42.666667 0 0 1-42.666666-42.666667V384a42.666667 42.666667 0 0 1 42.666666-42.666667h42.666667a42.666667 42.666667 0 0 1 42.666667 42.666667z m238.933333 0a42.666667 42.666667 0 0 0-33.28 50.346667 384 384 0 1 1-298.666667-298.666667 42.666667 42.666667 0 1 0 17.066667-85.333333A460.8 460.8 0 0 0 512 42.666667a469.333333 469.333333 0 1 0 469.333333 469.333333 460.8 460.8 0 0 0-9.386666-93.866667A42.666667 42.666667 0 0 0 921.6 384zM298.666667 298.666667v426.666666a42.666667 42.666667 0 0 0 85.333333 0V298.666667a42.666667 42.666667 0 0 0-85.333333 0z"  /></svg>